<?xml version="1.0" encoding="UTF-8" standalone="no"?>
<!-- Created with Inkscape (http://www.inkscape.org/) -->

<svg
   width="32"
   height="32"
   viewBox="0 0 32 32"
   version="1.1"
   id="svg5"
   inkscape:export-filename="icon.png"
   inkscape:export-xdpi="300"
   inkscape:export-ydpi="300"
   inkscape:version="1.2.2 (732a01da63, 2022-12-09)"
   sodipodi:docname="smali.svg"
   xmlns:inkscape="http://www.inkscape.org/namespaces/inkscape"
   xmlns:sodipodi="http://sodipodi.sourceforge.net/DTD/sodipodi-0.dtd"
   xmlns="http://www.w3.org/2000/svg"
   xmlns:svg="http://www.w3.org/2000/svg">
  <sodipodi:namedview
     id="namedview7"
     pagecolor="#ffffff"
     bordercolor="#000000"
     borderopacity="0.25"
     inkscape:showpageshadow="2"
     inkscape:pageopacity="0.0"
     inkscape:pagecheckerboard="0"
     inkscape:deskcolor="#d1d1d1"
     inkscape:document-units="px"
     showgrid="false"
     inkscape:zoom="9.1592425"
     inkscape:cx="47.49301"
     inkscape:cy="3.4937387"
     inkscape:window-width="1920"
     inkscape:window-height="1009"
     inkscape:window-x="-8"
     inkscape:window-y="-8"
     inkscape:window-maximized="1"
     inkscape:current-layer="layer1" />
  <defs
     id="defs2" />
  <g
     inkscape:label="Layer 1"
     inkscape:groupmode="layer"
     id="layer1">
    <path
       id="path2996"
       style="fill:#1c1697;stroke-width:0.678451"
       d="M 3.6757812 10.365234 C 3.6212375 10.484485 3.5648291 10.603526 3.5136719 10.724609 C 3.4280322 10.927308 3.347408 11.132234 3.2714844 11.339844 C 3.1955607 11.547453 3.1245188 11.756513 3.0585938 11.96875 C 2.9926685 12.180987 2.9306438 12.3967 2.875 12.613281 C 2.8193562 12.829863 2.7696895 13.046935 2.7246094 13.267578 C 2.6795291 13.488221 2.6397026 13.711125 2.6054688 13.935547 C 2.5712347 14.159969 2.5426365 14.387318 2.5195312 14.615234 C 2.4964262 14.843153 2.4784908 15.071605 2.4667969 15.302734 C 2.455103 15.533866 2.4492188 15.767891 2.4492188 16.001953 C 2.4492188 16.236015 2.455103 16.468091 2.4667969 16.699219 C 2.4784908 16.930346 2.4964262 17.158809 2.5195312 17.386719 C 2.5426365 17.614629 2.5712347 17.841997 2.6054688 18.066406 C 2.6397026 18.290816 2.6795291 18.513748 2.7246094 18.734375 C 2.7696895 18.955002 2.8193562 19.174063 2.875 19.390625 C 2.9306438 19.607187 2.9926685 19.820989 3.0585938 20.033203 C 3.1245188 20.245417 3.1955607 20.454528 3.2714844 20.662109 C 3.347408 20.869693 3.4280322 21.074673 3.5136719 21.277344 C 3.5645981 21.397864 3.6214989 21.516063 3.6757812 21.634766 L 28.324219 21.634766 C 28.378519 21.516063 28.435385 21.397864 28.486328 21.277344 C 28.571996 21.074673 28.652566 20.869693 28.728516 20.662109 C 28.804465 20.454528 28.875458 20.245417 28.941406 20.033203 C 29.007354 19.820989 29.069336 19.607187 29.125 19.390625 C 29.180664 19.174063 29.230294 18.955002 29.275391 18.734375 C 29.320487 18.513748 29.360285 18.290816 29.394531 18.066406 C 29.428778 17.841997 29.457355 17.614629 29.480469 17.386719 C 29.503583 17.158809 29.521505 16.930346 29.533203 16.699219 C 29.544902 16.468091 29.550781 16.236015 29.550781 16.001953 C 29.550781 15.767891 29.544902 15.533866 29.533203 15.302734 C 29.521505 15.071605 29.503583 14.843153 29.480469 14.615234 C 29.457355 14.387318 29.428778 14.159969 29.394531 13.935547 C 29.360285 13.711125 29.320487 13.488221 29.275391 13.267578 C 29.230294 13.046935 29.180664 12.829863 29.125 12.613281 C 29.069336 12.3967 29.007354 12.180987 28.941406 11.96875 C 28.875458 11.756513 28.804465 11.547453 28.728516 11.339844 C 28.652566 11.132234 28.571996 10.927308 28.486328 10.724609 C 28.435154 10.603526 28.37878 10.484485 28.324219 10.365234 L 3.6757812 10.365234 z M 22.908203 12.884766 L 24.113281 12.884766 L 24.113281 19.033203 L 22.908203 19.033203 L 22.908203 12.884766 z M 25.982422 12.884766 C 26.160398 12.884766 26.313926 12.929336 26.443359 13.015625 C 26.572796 13.096525 26.638672 13.250051 26.638672 13.476562 C 26.638672 13.697684 26.572792 13.851209 26.443359 13.9375 C 26.313926 14.02379 26.160398 14.066406 25.982422 14.066406 C 25.799053 14.066406 25.643108 14.023796 25.513672 13.9375 C 25.389629 13.85121 25.328125 13.697684 25.328125 13.476562 C 25.328125 13.250051 25.389625 13.096523 25.513672 13.015625 C 25.643108 12.929335 25.799053 12.884766 25.982422 12.884766 z M 7.3847656 13.175781 C 7.6867827 13.175781 7.9725294 13.211141 8.2421875 13.28125 C 8.5118446 13.35136 8.7975923 13.452595 9.0996094 13.582031 L 8.703125 14.535156 C 8.4388609 14.427292 8.2005678 14.344482 7.9902344 14.285156 C 7.779901 14.225826 7.5648704 14.195312 7.34375 14.195312 C 7.1118446 14.195313 6.9345896 14.249562 6.8105469 14.357422 C 6.6865042 14.465286 6.6230469 14.606714 6.6230469 14.779297 C 6.6230469 14.984238 6.7150671 15.145022 6.8984375 15.263672 C 7.0818049 15.382322 7.3554548 15.528589 7.7167969 15.701172 C 8.013421 15.841394 8.2638106 15.985709 8.46875 16.136719 C 8.6790834 16.287728 8.8398693 16.466933 8.953125 16.671875 C 9.0663817 16.876816 9.1230469 17.129622 9.1230469 17.431641 C 9.1230469 17.943987 8.9385343 18.354705 8.5664062 18.662109 C 8.1996714 18.964128 7.6756317 19.115234 6.9960938 19.115234 C 6.3866676 19.115234 5.8413196 18.999485 5.3613281 18.767578 L 5.3613281 17.626953 C 5.6363792 17.745604 5.9197074 17.854561 6.2109375 17.957031 C 6.5075606 18.054111 6.8025199 18.103516 7.09375 18.103516 C 7.3957671 18.103516 7.6083792 18.046856 7.7324219 17.933594 C 7.8618573 17.814944 7.9257813 17.666257 7.9257812 17.488281 C 7.9257812 17.342665 7.8759112 17.219651 7.7734375 17.117188 C 7.6763578 17.014716 7.5441418 16.920275 7.3769531 16.833984 C 7.2097657 16.742304 7.0184608 16.645439 6.8027344 16.542969 C 6.6679047 16.478249 6.5216358 16.402697 6.3652344 16.316406 C 6.2088317 16.224726 6.0577238 16.113812 5.9121094 15.984375 C 5.7718867 15.849545 5.6561368 15.686809 5.5644531 15.498047 C 5.4727734 15.309285 5.4257813 15.082626 5.4257812 14.818359 C 5.4257812 14.30062 5.6025702 13.899121 5.953125 13.613281 C 6.3036798 13.322056 6.7807324 13.175781 7.3847656 13.175781 z M 19.833984 14.527344 C 20.427236 14.527344 20.880559 14.657143 21.193359 14.916016 C 21.511558 15.169491 21.671875 15.561311 21.671875 16.089844 L 21.671875 19.033203 L 20.830078 19.033203 L 20.595703 18.435547 L 20.5625 18.435547 C 20.373738 18.672847 20.175179 18.845261 19.964844 18.953125 C 19.754509 19.060989 19.464393 19.115234 19.097656 19.115234 C 18.703958 19.115234 18.378009 19.001899 18.119141 18.775391 C 17.860268 18.548876 17.730469 18.194833 17.730469 17.714844 C 17.730469 17.245636 17.89563 16.900804 18.224609 16.679688 C 18.553594 16.458567 19.047113 16.333607 19.705078 16.306641 L 20.474609 16.283203 L 20.474609 16.089844 C 20.474609 15.857937 20.411149 15.687942 20.287109 15.580078 C 20.168459 15.472214 20.000884 15.417969 19.785156 15.417969 C 19.569428 15.417969 19.359239 15.448952 19.154297 15.513672 C 18.949356 15.573002 18.745952 15.648551 18.541016 15.740234 L 18.144531 14.923828 C 18.376439 14.805178 18.636507 14.710736 18.927734 14.640625 C 19.218967 14.565125 19.521184 14.527344 19.833984 14.527344 z M 12.513672 14.535156 C 12.837264 14.535156 13.108957 14.589406 13.330078 14.697266 C 13.556593 14.799736 13.731426 14.962473 13.855469 15.183594 L 13.960938 15.183594 C 14.095761 14.95708 14.282231 14.791924 14.519531 14.689453 C 14.762225 14.586983 15.010192 14.535156 15.263672 14.535156 C 15.765233 14.535156 16.143011 14.664955 16.396484 14.923828 C 16.655358 15.177308 16.785156 15.588011 16.785156 16.154297 L 16.785156 19.033203 L 15.580078 19.033203 L 15.580078 16.453125 C 15.580078 15.816734 15.358252 15.498047 14.916016 15.498047 C 14.597817 15.498047 14.371158 15.611377 14.236328 15.837891 C 14.101498 16.064399 14.033203 16.39035 14.033203 16.816406 L 14.033203 19.033203 L 12.828125 19.033203 L 12.828125 16.453125 C 12.828125 15.816734 12.608252 15.498047 12.166016 15.498047 C 11.831638 15.498047 11.598187 15.625433 11.46875 15.878906 C 11.344707 16.126993 11.283203 16.485876 11.283203 16.955078 L 11.283203 19.033203 L 10.078125 19.033203 L 10.078125 14.617188 L 11 14.617188 L 11.162109 15.183594 L 11.226562 15.183594 C 11.361392 14.95708 11.545436 14.791924 11.777344 14.689453 C 12.014644 14.586983 12.260192 14.535156 12.513672 14.535156 z M 25.376953 14.617188 L 26.582031 14.617188 L 26.582031 19.033203 L 25.376953 19.033203 L 25.376953 14.617188 z " />
    <path
       id="rect2791"
       style="fill:#1c1697;stroke-width:0.678451"
       d="M 20.474609 16.986328 L 20.003906 17.003906 C 19.6156 17.014696 19.346322 17.083456 19.195312 17.212891 C 19.044306 17.342324 18.96875 17.512321 18.96875 17.722656 C 18.96875 17.906025 19.02299 18.038243 19.130859 18.119141 C 19.238723 18.194641 19.378199 18.232422 19.550781 18.232422 C 19.809654 18.232422 20.029056 18.156872 20.207031 18.005859 C 20.385007 17.849459 20.474609 17.632008 20.474609 17.351562 L 20.474609 16.986328 z " />
    <path
       id="path2992"
       style="fill:#1c1697;stroke-width:0.678451"
       d="M 29.392578 21.634766 C 29.481527 21.423829 29.567358 21.210003 29.646484 20.994141 C 29.728026 20.771689 29.804191 20.545741 29.875 20.318359 C 29.945809 20.090977 30.010541 19.862866 30.070312 19.630859 C 30.130084 19.398853 30.183994 19.164061 30.232422 18.927734 C 30.28085 18.691408 30.324549 18.453231 30.361328 18.212891 C 30.398108 17.97255 30.4283 17.730378 30.453125 17.486328 C 30.47795 17.242278 30.4972 16.995501 30.509766 16.748047 C 30.522331 16.500593 30.527344 16.252506 30.527344 16.001953 C 30.527344 15.751401 30.522331 15.501365 30.509766 15.253906 C 30.4972 15.006448 30.47795 14.761637 30.453125 14.517578 C 30.4283 14.273519 30.398108 14.031369 30.361328 13.791016 C 30.324549 13.550662 30.28085 13.310561 30.232422 13.074219 C 30.183994 12.837876 30.130084 12.605073 30.070312 12.373047 C 30.010541 12.141021 29.945809 11.910998 29.875 11.683594 C 29.804191 11.456189 29.728026 11.23029 29.646484 11.007812 C 29.56715 10.791357 29.481786 10.576741 29.392578 10.365234 L 28.324219 10.365234 C 28.37878 10.484485 28.435154 10.603526 28.486328 10.724609 C 28.571996 10.927308 28.652566 11.132234 28.728516 11.339844 C 28.804465 11.547453 28.875458 11.756513 28.941406 11.96875 C 29.007354 12.180987 29.069336 12.3967 29.125 12.613281 C 29.180664 12.829863 29.230294 13.046935 29.275391 13.267578 C 29.320487 13.488221 29.360285 13.711125 29.394531 13.935547 C 29.428778 14.159969 29.457355 14.387316 29.480469 14.615234 C 29.503583 14.843153 29.521505 15.071603 29.533203 15.302734 C 29.544902 15.533866 29.550781 15.767891 29.550781 16.001953 C 29.550781 16.236015 29.544902 16.468091 29.533203 16.699219 C 29.521505 16.930346 29.503583 17.158809 29.480469 17.386719 C 29.457355 17.614629 29.428778 17.841997 29.394531 18.066406 C 29.360285 18.290816 29.320487 18.513748 29.275391 18.734375 C 29.230294 18.955002 29.180664 19.174063 29.125 19.390625 C 29.069336 19.607187 29.007354 19.820989 28.941406 20.033203 C 28.875458 20.245417 28.804465 20.454526 28.728516 20.662109 C 28.652566 20.869693 28.571996 21.074673 28.486328 21.277344 C 28.435385 21.397864 28.378519 21.516063 28.324219 21.634766 L 29.392578 21.634766 z " />
    <path
       id="path2988"
       style="fill:#1c1697;stroke-width:0.678451"
       d="M 2.6054688 10.365234 C 2.51629 10.576736 2.4328233 10.791362 2.3535156 11.007812 C 2.2719997 11.23029 2.1957865 11.456189 2.125 11.683594 C 2.0542135 11.910998 1.9894393 12.141021 1.9296875 12.373047 C 1.8699357 12.605073 1.81599 12.837876 1.7675781 13.074219 C 1.7191662 13.310561 1.6754387 13.550662 1.6386719 13.791016 C 1.6019051 14.031369 1.5716914 14.273519 1.546875 14.517578 C 1.5220586 14.761637 1.5027952 15.006448 1.4902344 15.253906 C 1.4776736 15.501365 1.4726562 15.751401 1.4726562 16.001953 C 1.4726562 16.252506 1.4776736 16.500593 1.4902344 16.748047 C 1.5027952 16.995501 1.5220586 17.242278 1.546875 17.486328 C 1.5716914 17.730378 1.6019051 17.97255 1.6386719 18.212891 C 1.6754387 18.453231 1.7191662 18.691408 1.7675781 18.927734 C 1.81599 19.164061 1.8699357 19.398853 1.9296875 19.630859 C 1.9894393 19.862866 2.0542135 20.090977 2.125 20.318359 C 2.1957865 20.545741 2.2719997 20.771689 2.3535156 20.994141 C 2.4326145 21.209996 2.5165504 21.423835 2.6054688 21.634766 L 3.6757812 21.634766 C 3.6214987 21.516063 3.5645983 21.397864 3.5136719 21.277344 C 3.428032 21.074673 3.3474082 20.869693 3.2714844 20.662109 C 3.1955605 20.454526 3.124519 20.245417 3.0585938 20.033203 C 2.9926685 19.820989 2.930644 19.607187 2.875 19.390625 C 2.819356 19.174063 2.7696897 18.955002 2.7246094 18.734375 C 2.6795291 18.513748 2.6397028 18.290816 2.6054688 18.066406 C 2.5712347 17.841997 2.5426365 17.614629 2.5195312 17.386719 C 2.496426 17.158809 2.4784908 16.930346 2.4667969 16.699219 C 2.455103 16.468091 2.4492188 16.236015 2.4492188 16.001953 C 2.4492188 15.767891 2.455103 15.533866 2.4667969 15.302734 C 2.4784908 15.071603 2.496426 14.843153 2.5195312 14.615234 C 2.5426365 14.387316 2.5712347 14.159969 2.6054688 13.935547 C 2.6397028 13.711125 2.6795291 13.488221 2.7246094 13.267578 C 2.7696897 13.046935 2.819356 12.829863 2.875 12.613281 C 2.930644 12.3967 2.9926685 12.180987 3.0585938 11.96875 C 3.124519 11.756513 3.1955605 11.547453 3.2714844 11.339844 C 3.3474082 11.132234 3.428032 10.927308 3.5136719 10.724609 C 3.5648293 10.603526 3.6212373 10.484485 3.6757812 10.365234 L 2.6054688 10.365234 z " />
    <path
       style="color:#000000;fill:#1c1697;fill-opacity:1;fill-rule:nonzero;stroke-width:1.22051;-inkscape-stroke:none"
       d="m 15.998808,1.4718311 c -8.0176906,0 -14.526977,6.5116697 -14.526977,14.5293599 0,8.017692 6.5092864,14.526978 14.526977,14.526978 8.01769,0 14.529361,-6.509286 14.529361,-14.526978 0,-8.0176902 -6.511671,-14.5293599 -14.529361,-14.5293599 z m 0,0.9773648 c 7.49,0 13.551996,6.0619965 13.551996,13.5519951 0,7.490001 -6.061996,13.549614 -13.551996,13.549614 -7.4899993,0 -13.5496122,-6.059613 -13.5496122,-13.549614 0,-7.4899986 6.0596129,-13.5519951 13.5496122,-13.5519951 z"
       id="path234" />
  </g>
</svg>
