<svg width="32" height="32" xmlns="http://www.w3.org/2000/svg"><path style="fill:#1c1697;stroke-width:.678451" d="M3.676 10.365c-.055.12-.111.239-.162.36a13.445 13.445 0 0 0-.994 3.89 13.637 13.637 0 0 0 .751 6.047c.076.208.157.413.243.615.05.12.107.24.162.358h24.648c.055-.119.111-.237.162-.358a13.44 13.44 0 0 0 .994-3.89 13.626 13.626 0 0 0-.994-6.662c-.05-.121-.107-.24-.162-.36zm19.232 2.52h1.205v6.148h-1.205zm3.074 0c.178 0 .332.044.461.13.13.082.196.235.196.462 0 .22-.066.374-.196.46a.811.811 0 0 1-.46.13.825.825 0 0 1-.47-.13c-.123-.086-.185-.24-.185-.46 0-.227.062-.38.186-.461a.826.826 0 0 1 .468-.131zm-18.597.29c.302 0 .588.036.857.106.27.07.556.172.858.301l-.397.953a6.78 6.78 0 0 0-.713-.25c-.21-.06-.425-.09-.646-.09-.232 0-.41.055-.533.162a.535.535 0 0 0-.188.422.55.55 0 0 0 .275.485c.184.118.457.265.819.437.296.14.547.285.752.436.21.15.37.33.484.535.113.205.17.458.17.76 0 .512-.184.923-.557 1.23-.366.302-.89.453-1.57.453-.61 0-1.155-.116-1.635-.347v-1.141c.275.119.559.228.85.33.297.097.592.147.883.147.302 0 .514-.057.638-.17a.579.579 0 0 0 .194-.446.503.503 0 0 0-.153-.37 1.47 1.47 0 0 0-.396-.284 11.181 11.181 0 0 0-.574-.291 8.746 8.746 0 0 1-.438-.227 2.862 2.862 0 0 1-.453-.332 1.543 1.543 0 0 1-.486-1.166c0-.517.177-.919.527-1.205.35-.29.828-.437 1.432-.437zm12.449 1.352c.593 0 1.047.13 1.36.389.318.253.478.645.478 1.174v2.943h-.842l-.234-.597h-.033c-.19.237-.388.41-.598.517-.21.108-.5.162-.867.162-.394 0-.72-.113-.979-.34-.259-.226-.389-.58-.389-1.06 0-.47.166-.814.495-1.035.329-.221.822-.346 1.48-.373l.77-.024v-.193c0-.232-.064-.402-.188-.51-.119-.108-.286-.162-.502-.162a2.08 2.08 0 0 0-.63.096 4.7 4.7 0 0 0-.614.226l-.396-.816a3.52 3.52 0 0 1 .783-.283c.291-.076.593-.114.906-.114zm-7.32.008c.323 0 .595.054.816.162.227.103.401.265.525.487h.106c.135-.227.321-.392.559-.495.242-.102.49-.154.744-.154.501 0 .879.13 1.132.389.26.253.39.664.39 1.23v2.88H15.58v-2.58c0-.637-.222-.956-.664-.956-.318 0-.545.113-.68.34-.135.226-.203.552-.203.978v2.217h-1.205v-2.58c0-.636-.22-.955-.662-.955-.334 0-.568.127-.697.38-.124.249-.186.608-.186 1.077v2.078h-1.205v-4.416H11l.162.567h.065a1.19 1.19 0 0 1 .55-.495 1.84 1.84 0 0 1 .737-.154zm12.863.082h1.205v4.416h-1.205z"/><path style="fill:#1c1697;stroke-width:.678451" d="m20.475 16.986-.471.018c-.388.01-.658.08-.809.209a.639.639 0 0 0-.226.51c0 .183.054.315.162.396a.716.716 0 0 0 .42.113.98.98 0 0 0 .656-.226c.178-.157.268-.374.268-.654zM29.393 21.635a14.461 14.461 0 0 0 .482-1.317 14.331 14.331 0 0 0 .578-2.832 14.653 14.653 0 0 0-.22-4.412 14.361 14.361 0 0 0-.84-2.709h-1.069c.055.12.111.239.162.36a13.441 13.441 0 0 1 .994 3.89 13.626 13.626 0 0 1-.994 6.662c-.05.12-.107.24-.162.358zM2.605 10.365a14.443 14.443 0 0 0-.837 2.71 14.529 14.529 0 0 0-.278 2.179c-.012.247-.017.497-.017.748a14.705 14.705 0 0 0 .074 1.484 14.511 14.511 0 0 0 .383 2.145 14.336 14.336 0 0 0 .675 2.004h1.07c-.054-.119-.11-.237-.161-.358a13.445 13.445 0 0 1-.994-3.89 13.636 13.636 0 0 1 .751-6.047c.076-.208.157-.413.243-.615.05-.121.107-.24.162-.36z"/><path style="color:#000;fill:#1c1697;fill-opacity:1;fill-rule:nonzero;stroke-width:1.22051;-inkscape-stroke:none" d="M15.999 1.472c-8.018 0-14.527 6.512-14.527 14.53 0 8.017 6.51 14.526 14.527 14.526s14.53-6.51 14.53-14.527-6.513-14.53-14.53-14.53zm0 .977c7.49 0 13.552 6.062 13.552 13.552 0 7.49-6.062 13.55-13.552 13.55-7.49 0-13.55-6.06-13.55-13.55C2.45 8.511 8.51 2.45 16 2.45z"/></svg>